<svg width="33" height="33" viewBox="0 0 33 33" fill="none" xmlns="http://www.w3.org/2000/svg">
<path d="M8.25 30.25C7.49375 30.25 6.84635 29.9807 6.30781 29.4422C5.76927 28.9036 5.5 28.2563 5.5 27.5V11C5.5 10.2438 5.76927 9.59635 6.30781 9.05781C6.84635 8.51927 7.49375 8.25 8.25 8.25H11C11 6.7375 11.5385 5.44271 12.6156 4.36563C13.6927 3.28854 14.9875 2.75 16.5 2.75C18.0125 2.75 19.3073 3.28854 20.3844 4.36563C21.4615 5.44271 22 6.7375 22 8.25H24.75C25.5063 8.25 26.1536 8.51927 26.6922 9.05781C27.2307 9.59635 27.5 10.2438 27.5 11V27.5C27.5 28.2563 27.2307 28.9036 26.6922 29.4422C26.1536 29.9807 25.5063 30.25 24.75 30.25H8.25ZM8.25 27.5H24.75V11H22V13.75C22 14.1396 21.8682 14.4661 21.6047 14.7297C21.3411 14.9932 21.0146 15.125 20.625 15.125C20.2354 15.125 19.9089 14.9932 19.6453 14.7297C19.3818 14.4661 19.25 14.1396 19.25 13.75V11H13.75V13.75C13.75 14.1396 13.6182 14.4661 13.3547 14.7297C13.0911 14.9932 12.7646 15.125 12.375 15.125C11.9854 15.125 11.6589 14.9932 11.3953 14.7297C11.1318 14.4661 11 14.1396 11 13.75V11H8.25V27.5ZM13.75 8.25H19.25C19.25 7.49375 18.9807 6.84635 18.4422 6.30781C17.9036 5.76927 17.2563 5.5 16.5 5.5C15.7438 5.5 15.0964 5.76927 14.5578 6.30781C14.0193 6.84635 13.75 7.49375 13.75 8.25Z" fill="#1E1E1E"/>
</svg>
